# generated by cozy-coffee-iso
v -0.620000 -0.620000 0.720000
v 0.620000 -0.620000 0.720000
v 0.620000 0.620000 0.720000
v -0.620000 0.620000 0.720000
v 0.620000 -0.620000 0.000000
v -0.620000 -0.620000 0.000000
v -0.620000 0.620000 0.000000
v 0.620000 0.620000 0.000000
v -0.620000 -0.620000 0.000000
v 0.620000 -0.620000 0.000000
v 0.620000 -0.620000 0.720000
v -0.620000 -0.620000 0.720000
v 0.620000 -0.620000 0.000000
v 0.620000 0.620000 0.000000
v 0.620000 0.620000 0.720000
v 0.620000 -0.620000 0.720000
v 0.620000 0.620000 0.000000
v -0.620000 0.620000 0.000000
v -0.620000 0.620000 0.720000
v 0.620000 0.620000 0.720000
v -0.620000 0.620000 0.000000
v -0.620000 -0.620000 0.000000
v -0.620000 -0.620000 0.720000
v -0.620000 0.620000 0.720000
v 0.460000 0.000000 0.720000
v 0.444326 0.119057 0.720000
v 0.444326 0.119057 0.780000
v 0.460000 0.000000 0.780000
v 0.000000 0.000000 0.780000
v 0.460000 0.000000 0.780000
v 0.444326 0.119057 0.780000
v 0.000000 0.000000 0.720000
v 0.444326 0.119057 0.720000
v 0.460000 0.000000 0.720000
v 0.444326 0.119057 0.720000
v 0.398372 0.230000 0.720000
v 0.398372 0.230000 0.780000
v 0.444326 0.119057 0.780000
v 0.000000 0.000000 0.780000
v 0.444326 0.119057 0.780000
v 0.398372 0.230000 0.780000
v 0.000000 0.000000 0.720000
v 0.398372 0.230000 0.720000
v 0.444326 0.119057 0.720000
v 0.398372 0.230000 0.720000
v 0.325269 0.325269 0.720000
v 0.325269 0.325269 0.780000
v 0.398372 0.230000 0.780000
v 0.000000 0.000000 0.780000
v 0.398372 0.230000 0.780000
v 0.325269 0.325269 0.780000
v 0.000000 0.000000 0.720000
v 0.325269 0.325269 0.720000
v 0.398372 0.230000 0.720000
v 0.325269 0.325269 0.720000
v 0.230000 0.398372 0.720000
v 0.230000 0.398372 0.780000
v 0.325269 0.325269 0.780000
v 0.000000 0.000000 0.780000
v 0.325269 0.325269 0.780000
v 0.230000 0.398372 0.780000
v 0.000000 0.000000 0.720000
v 0.230000 0.398372 0.720000
v 0.325269 0.325269 0.720000
v 0.230000 0.398372 0.720000
v 0.119057 0.444326 0.720000
v 0.119057 0.444326 0.780000
v 0.230000 0.398372 0.780000
v 0.000000 0.000000 0.780000
v 0.230000 0.398372 0.780000
v 0.119057 0.444326 0.780000
v 0.000000 0.000000 0.720000
v 0.119057 0.444326 0.720000
v 0.230000 0.398372 0.720000
v 0.119057 0.444326 0.720000
v 0.000000 0.460000 0.720000
v 0.000000 0.460000 0.780000
v 0.119057 0.444326 0.780000
v 0.000000 0.000000 0.780000
v 0.119057 0.444326 0.780000
v 0.000000 0.460000 0.780000
v 0.000000 0.000000 0.720000
v 0.000000 0.460000 0.720000
v 0.119057 0.444326 0.720000
v 0.000000 0.460000 0.720000
v -0.119057 0.444326 0.720000
v -0.119057 0.444326 0.780000
v 0.000000 0.460000 0.780000
v 0.000000 0.000000 0.780000
v 0.000000 0.460000 0.780000
v -0.119057 0.444326 0.780000
v 0.000000 0.000000 0.720000
v -0.119057 0.444326 0.720000
v 0.000000 0.460000 0.720000
v -0.119057 0.444326 0.720000
v -0.230000 0.398372 0.720000
v -0.230000 0.398372 0.780000
v -0.119057 0.444326 0.780000
v 0.000000 0.000000 0.780000
v -0.119057 0.444326 0.780000
v -0.230000 0.398372 0.780000
v 0.000000 0.000000 0.720000
v -0.230000 0.398372 0.720000
v -0.119057 0.444326 0.720000
v -0.230000 0.398372 0.720000
v -0.325269 0.325269 0.720000
v -0.325269 0.325269 0.780000
v -0.230000 0.398372 0.780000
v 0.000000 0.000000 0.780000
v -0.230000 0.398372 0.780000
v -0.325269 0.325269 0.780000
v 0.000000 0.000000 0.720000
v -0.325269 0.325269 0.720000
v -0.230000 0.398372 0.720000
v -0.325269 0.325269 0.720000
v -0.398372 0.230000 0.720000
v -0.398372 0.230000 0.780000
v -0.325269 0.325269 0.780000
v 0.000000 0.000000 0.780000
v -0.325269 0.325269 0.780000
v -0.398372 0.230000 0.780000
v 0.000000 0.000000 0.720000
v -0.398372 0.230000 0.720000
v -0.325269 0.325269 0.720000
v -0.398372 0.230000 0.720000
v -0.444326 0.119057 0.720000
v -0.444326 0.119057 0.780000
v -0.398372 0.230000 0.780000
v 0.000000 0.000000 0.780000
v -0.398372 0.230000 0.780000
v -0.444326 0.119057 0.780000
v 0.000000 0.000000 0.720000
v -0.444326 0.119057 0.720000
v -0.398372 0.230000 0.720000
v -0.444326 0.119057 0.720000
v -0.460000 0.000000 0.720000
v -0.460000 0.000000 0.780000
v -0.444326 0.119057 0.780000
v 0.000000 0.000000 0.780000
v -0.444326 0.119057 0.780000
v -0.460000 0.000000 0.780000
v 0.000000 0.000000 0.720000
v -0.460000 0.000000 0.720000
v -0.444326 0.119057 0.720000
v -0.460000 0.000000 0.720000
v -0.444326 -0.119057 0.720000
v -0.444326 -0.119057 0.780000
v -0.460000 0.000000 0.780000
v 0.000000 0.000000 0.780000
v -0.460000 0.000000 0.780000
v -0.444326 -0.119057 0.780000
v 0.000000 0.000000 0.720000
v -0.444326 -0.119057 0.720000
v -0.460000 0.000000 0.720000
v -0.444326 -0.119057 0.720000
v -0.398372 -0.230000 0.720000
v -0.398372 -0.230000 0.780000
v -0.444326 -0.119057 0.780000
v 0.000000 0.000000 0.780000
v -0.444326 -0.119057 0.780000
v -0.398372 -0.230000 0.780000
v 0.000000 0.000000 0.720000
v -0.398372 -0.230000 0.720000
v -0.444326 -0.119057 0.720000
v -0.398372 -0.230000 0.720000
v -0.325269 -0.325269 0.720000
v -0.325269 -0.325269 0.780000
v -0.398372 -0.230000 0.780000
v 0.000000 0.000000 0.780000
v -0.398372 -0.230000 0.780000
v -0.325269 -0.325269 0.780000
v 0.000000 0.000000 0.720000
v -0.325269 -0.325269 0.720000
v -0.398372 -0.230000 0.720000
v -0.325269 -0.325269 0.720000
v -0.230000 -0.398372 0.720000
v -0.230000 -0.398372 0.780000
v -0.325269 -0.325269 0.780000
v 0.000000 0.000000 0.780000
v -0.325269 -0.325269 0.780000
v -0.230000 -0.398372 0.780000
v 0.000000 0.000000 0.720000
v -0.230000 -0.398372 0.720000
v -0.325269 -0.325269 0.720000
v -0.230000 -0.398372 0.720000
v -0.119057 -0.444326 0.720000
v -0.119057 -0.444326 0.780000
v -0.230000 -0.398372 0.780000
v 0.000000 0.000000 0.780000
v -0.230000 -0.398372 0.780000
v -0.119057 -0.444326 0.780000
v 0.000000 0.000000 0.720000
v -0.119057 -0.444326 0.720000
v -0.230000 -0.398372 0.720000
v -0.119057 -0.444326 0.720000
v -0.000000 -0.460000 0.720000
v -0.000000 -0.460000 0.780000
v -0.119057 -0.444326 0.780000
v 0.000000 0.000000 0.780000
v -0.119057 -0.444326 0.780000
v -0.000000 -0.460000 0.780000
v 0.000000 0.000000 0.720000
v -0.000000 -0.460000 0.720000
v -0.119057 -0.444326 0.720000
v -0.000000 -0.460000 0.720000
v 0.119057 -0.444326 0.720000
v 0.119057 -0.444326 0.780000
v -0.000000 -0.460000 0.780000
v 0.000000 0.000000 0.780000
v -0.000000 -0.460000 0.780000
v 0.119057 -0.444326 0.780000
v 0.000000 0.000000 0.720000
v 0.119057 -0.444326 0.720000
v -0.000000 -0.460000 0.720000
v 0.119057 -0.444326 0.720000
v 0.230000 -0.398372 0.720000
v 0.230000 -0.398372 0.780000
v 0.119057 -0.444326 0.780000
v 0.000000 0.000000 0.780000
v 0.119057 -0.444326 0.780000
v 0.230000 -0.398372 0.780000
v 0.000000 0.000000 0.720000
v 0.230000 -0.398372 0.720000
v 0.119057 -0.444326 0.720000
v 0.230000 -0.398372 0.720000
v 0.325269 -0.325269 0.720000
v 0.325269 -0.325269 0.780000
v 0.230000 -0.398372 0.780000
v 0.000000 0.000000 0.780000
v 0.230000 -0.398372 0.780000
v 0.325269 -0.325269 0.780000
v 0.000000 0.000000 0.720000
v 0.325269 -0.325269 0.720000
v 0.230000 -0.398372 0.720000
v 0.325269 -0.325269 0.720000
v 0.398372 -0.230000 0.720000
v 0.398372 -0.230000 0.780000
v 0.325269 -0.325269 0.780000
v 0.000000 0.000000 0.780000
v 0.325269 -0.325269 0.780000
v 0.398372 -0.230000 0.780000
v 0.000000 0.000000 0.720000
v 0.398372 -0.230000 0.720000
v 0.325269 -0.325269 0.720000
v 0.398372 -0.230000 0.720000
v 0.444326 -0.119057 0.720000
v 0.444326 -0.119057 0.780000
v 0.398372 -0.230000 0.780000
v 0.000000 0.000000 0.780000
v 0.398372 -0.230000 0.780000
v 0.444326 -0.119057 0.780000
v 0.000000 0.000000 0.720000
v 0.444326 -0.119057 0.720000
v 0.398372 -0.230000 0.720000
v 0.444326 -0.119057 0.720000
v 0.460000 0.000000 0.720000
v 0.460000 0.000000 0.780000
v 0.444326 -0.119057 0.780000
v 0.000000 0.000000 0.780000
v 0.444326 -0.119057 0.780000
v 0.460000 0.000000 0.780000
v 0.000000 0.000000 0.720000
v 0.460000 0.000000 0.720000
v 0.444326 -0.119057 0.720000
v 0.300000 0.000000 0.780000
v 0.289778 0.077646 0.780000
v 0.289778 0.077646 1.180000
v 0.300000 0.000000 1.180000
v 0.000000 0.000000 1.180000
v 0.300000 0.000000 1.180000
v 0.289778 0.077646 1.180000
v 0.000000 0.000000 0.780000
v 0.289778 0.077646 0.780000
v 0.300000 0.000000 0.780000
v 0.289778 0.077646 0.780000
v 0.259808 0.150000 0.780000
v 0.259808 0.150000 1.180000
v 0.289778 0.077646 1.180000
v 0.000000 0.000000 1.180000
v 0.289778 0.077646 1.180000
v 0.259808 0.150000 1.180000
v 0.000000 0.000000 0.780000
v 0.259808 0.150000 0.780000
v 0.289778 0.077646 0.780000
v 0.259808 0.150000 0.780000
v 0.212132 0.212132 0.780000
v 0.212132 0.212132 1.180000
v 0.259808 0.150000 1.180000
v 0.000000 0.000000 1.180000
v 0.259808 0.150000 1.180000
v 0.212132 0.212132 1.180000
v 0.000000 0.000000 0.780000
v 0.212132 0.212132 0.780000
v 0.259808 0.150000 0.780000
v 0.212132 0.212132 0.780000
v 0.150000 0.259808 0.780000
v 0.150000 0.259808 1.180000
v 0.212132 0.212132 1.180000
v 0.000000 0.000000 1.180000
v 0.212132 0.212132 1.180000
v 0.150000 0.259808 1.180000
v 0.000000 0.000000 0.780000
v 0.150000 0.259808 0.780000
v 0.212132 0.212132 0.780000
v 0.150000 0.259808 0.780000
v 0.077646 0.289778 0.780000
v 0.077646 0.289778 1.180000
v 0.150000 0.259808 1.180000
v 0.000000 0.000000 1.180000
v 0.150000 0.259808 1.180000
v 0.077646 0.289778 1.180000
v 0.000000 0.000000 0.780000
v 0.077646 0.289778 0.780000
v 0.150000 0.259808 0.780000
v 0.077646 0.289778 0.780000
v 0.000000 0.300000 0.780000
v 0.000000 0.300000 1.180000
v 0.077646 0.289778 1.180000
v 0.000000 0.000000 1.180000
v 0.077646 0.289778 1.180000
v 0.000000 0.300000 1.180000
v 0.000000 0.000000 0.780000
v 0.000000 0.300000 0.780000
v 0.077646 0.289778 0.780000
v 0.000000 0.300000 0.780000
v -0.077646 0.289778 0.780000
v -0.077646 0.289778 1.180000
v 0.000000 0.300000 1.180000
v 0.000000 0.000000 1.180000
v 0.000000 0.300000 1.180000
v -0.077646 0.289778 1.180000
v 0.000000 0.000000 0.780000
v -0.077646 0.289778 0.780000
v 0.000000 0.300000 0.780000
v -0.077646 0.289778 0.780000
v -0.150000 0.259808 0.780000
v -0.150000 0.259808 1.180000
v -0.077646 0.289778 1.180000
v 0.000000 0.000000 1.180000
v -0.077646 0.289778 1.180000
v -0.150000 0.259808 1.180000
v 0.000000 0.000000 0.780000
v -0.150000 0.259808 0.780000
v -0.077646 0.289778 0.780000
v -0.150000 0.259808 0.780000
v -0.212132 0.212132 0.780000
v -0.212132 0.212132 1.180000
v -0.150000 0.259808 1.180000
v 0.000000 0.000000 1.180000
v -0.150000 0.259808 1.180000
v -0.212132 0.212132 1.180000
v 0.000000 0.000000 0.780000
v -0.212132 0.212132 0.780000
v -0.150000 0.259808 0.780000
v -0.212132 0.212132 0.780000
v -0.259808 0.150000 0.780000
v -0.259808 0.150000 1.180000
v -0.212132 0.212132 1.180000
v 0.000000 0.000000 1.180000
v -0.212132 0.212132 1.180000
v -0.259808 0.150000 1.180000
v 0.000000 0.000000 0.780000
v -0.259808 0.150000 0.780000
v -0.212132 0.212132 0.780000
v -0.259808 0.150000 0.780000
v -0.289778 0.077646 0.780000
v -0.289778 0.077646 1.180000
v -0.259808 0.150000 1.180000
v 0.000000 0.000000 1.180000
v -0.259808 0.150000 1.180000
v -0.289778 0.077646 1.180000
v 0.000000 0.000000 0.780000
v -0.289778 0.077646 0.780000
v -0.259808 0.150000 0.780000
v -0.289778 0.077646 0.780000
v -0.300000 0.000000 0.780000
v -0.300000 0.000000 1.180000
v -0.289778 0.077646 1.180000
v 0.000000 0.000000 1.180000
v -0.289778 0.077646 1.180000
v -0.300000 0.000000 1.180000
v 0.000000 0.000000 0.780000
v -0.300000 0.000000 0.780000
v -0.289778 0.077646 0.780000
v -0.300000 0.000000 0.780000
v -0.289778 -0.077646 0.780000
v -0.289778 -0.077646 1.180000
v -0.300000 0.000000 1.180000
v 0.000000 0.000000 1.180000
v -0.300000 0.000000 1.180000
v -0.289778 -0.077646 1.180000
v 0.000000 0.000000 0.780000
v -0.289778 -0.077646 0.780000
v -0.300000 0.000000 0.780000
v -0.289778 -0.077646 0.780000
v -0.259808 -0.150000 0.780000
v -0.259808 -0.150000 1.180000
v -0.289778 -0.077646 1.180000
v 0.000000 0.000000 1.180000
v -0.289778 -0.077646 1.180000
v -0.259808 -0.150000 1.180000
v 0.000000 0.000000 0.780000
v -0.259808 -0.150000 0.780000
v -0.289778 -0.077646 0.780000
v -0.259808 -0.150000 0.780000
v -0.212132 -0.212132 0.780000
v -0.212132 -0.212132 1.180000
v -0.259808 -0.150000 1.180000
v 0.000000 0.000000 1.180000
v -0.259808 -0.150000 1.180000
v -0.212132 -0.212132 1.180000
v 0.000000 0.000000 0.780000
v -0.212132 -0.212132 0.780000
v -0.259808 -0.150000 0.780000
v -0.212132 -0.212132 0.780000
v -0.150000 -0.259808 0.780000
v -0.150000 -0.259808 1.180000
v -0.212132 -0.212132 1.180000
v 0.000000 0.000000 1.180000
v -0.212132 -0.212132 1.180000
v -0.150000 -0.259808 1.180000
v 0.000000 0.000000 0.780000
v -0.150000 -0.259808 0.780000
v -0.212132 -0.212132 0.780000
v -0.150000 -0.259808 0.780000
v -0.077646 -0.289778 0.780000
v -0.077646 -0.289778 1.180000
v -0.150000 -0.259808 1.180000
v 0.000000 0.000000 1.180000
v -0.150000 -0.259808 1.180000
v -0.077646 -0.289778 1.180000
v 0.000000 0.000000 0.780000
v -0.077646 -0.289778 0.780000
v -0.150000 -0.259808 0.780000
v -0.077646 -0.289778 0.780000
v -0.000000 -0.300000 0.780000
v -0.000000 -0.300000 1.180000
v -0.077646 -0.289778 1.180000
v 0.000000 0.000000 1.180000
v -0.077646 -0.289778 1.180000
v -0.000000 -0.300000 1.180000
v 0.000000 0.000000 0.780000
v -0.000000 -0.300000 0.780000
v -0.077646 -0.289778 0.780000
v -0.000000 -0.300000 0.780000
v 0.077646 -0.289778 0.780000
v 0.077646 -0.289778 1.180000
v -0.000000 -0.300000 1.180000
v 0.000000 0.000000 1.180000
v -0.000000 -0.300000 1.180000
v 0.077646 -0.289778 1.180000
v 0.000000 0.000000 0.780000
v 0.077646 -0.289778 0.780000
v -0.000000 -0.300000 0.780000
v 0.077646 -0.289778 0.780000
v 0.150000 -0.259808 0.780000
v 0.150000 -0.259808 1.180000
v 0.077646 -0.289778 1.180000
v 0.000000 0.000000 1.180000
v 0.077646 -0.289778 1.180000
v 0.150000 -0.259808 1.180000
v 0.000000 0.000000 0.780000
v 0.150000 -0.259808 0.780000
v 0.077646 -0.289778 0.780000
v 0.150000 -0.259808 0.780000
v 0.212132 -0.212132 0.780000
v 0.212132 -0.212132 1.180000
v 0.150000 -0.259808 1.180000
v 0.000000 0.000000 1.180000
v 0.150000 -0.259808 1.180000
v 0.212132 -0.212132 1.180000
v 0.000000 0.000000 0.780000
v 0.212132 -0.212132 0.780000
v 0.150000 -0.259808 0.780000
v 0.212132 -0.212132 0.780000
v 0.259808 -0.150000 0.780000
v 0.259808 -0.150000 1.180000
v 0.212132 -0.212132 1.180000
v 0.000000 0.000000 1.180000
v 0.212132 -0.212132 1.180000
v 0.259808 -0.150000 1.180000
v 0.000000 0.000000 0.780000
v 0.259808 -0.150000 0.780000
v 0.212132 -0.212132 0.780000
v 0.259808 -0.150000 0.780000
v 0.289778 -0.077646 0.780000
v 0.289778 -0.077646 1.180000
v 0.259808 -0.150000 1.180000
v 0.000000 0.000000 1.180000
v 0.259808 -0.150000 1.180000
v 0.289778 -0.077646 1.180000
v 0.000000 0.000000 0.780000
v 0.289778 -0.077646 0.780000
v 0.259808 -0.150000 0.780000
v 0.289778 -0.077646 0.780000
v 0.300000 0.000000 0.780000
v 0.300000 0.000000 1.180000
v 0.289778 -0.077646 1.180000
v 0.000000 0.000000 1.180000
v 0.289778 -0.077646 1.180000
v 0.300000 0.000000 1.180000
v 0.000000 0.000000 0.780000
v 0.300000 0.000000 0.780000
v 0.289778 -0.077646 0.780000
v 0.400000 -0.420000 1.040000
v 0.400000 -0.420000 1.040000
v 0.443041 -0.402172 1.033867
v 0.446587 -0.420000 1.033867
v 0.400000 -0.420000 1.040000
v 0.400000 -0.420000 1.040000
v 0.432942 -0.387058 1.033867
v 0.443041 -0.402172 1.033867
v 0.400000 -0.420000 1.040000
v 0.400000 -0.420000 1.040000
v 0.417828 -0.376959 1.033867
v 0.432942 -0.387058 1.033867
v 0.400000 -0.420000 1.040000
v 0.400000 -0.420000 1.040000
v 0.400000 -0.373413 1.033867
v 0.417828 -0.376959 1.033867
v 0.400000 -0.420000 1.040000
v 0.400000 -0.420000 1.040000
v 0.382172 -0.376959 1.033867
v 0.400000 -0.373413 1.033867
v 0.400000 -0.420000 1.040000
v 0.400000 -0.420000 1.040000
v 0.367058 -0.387058 1.033867
v 0.382172 -0.376959 1.033867
v 0.400000 -0.420000 1.040000
v 0.400000 -0.420000 1.040000
v 0.356959 -0.402172 1.033867
v 0.367058 -0.387058 1.033867
v 0.400000 -0.420000 1.040000
v 0.400000 -0.420000 1.040000
v 0.353413 -0.420000 1.033867
v 0.356959 -0.402172 1.033867
v 0.400000 -0.420000 1.040000
v 0.400000 -0.420000 1.040000
v 0.356959 -0.437828 1.033867
v 0.353413 -0.420000 1.033867
v 0.400000 -0.420000 1.040000
v 0.400000 -0.420000 1.040000
v 0.367058 -0.452942 1.033867
v 0.356959 -0.437828 1.033867
v 0.400000 -0.420000 1.040000
v 0.400000 -0.420000 1.040000
v 0.382172 -0.463041 1.033867
v 0.367058 -0.452942 1.033867
v 0.400000 -0.420000 1.040000
v 0.400000 -0.420000 1.040000
v 0.400000 -0.466587 1.033867
v 0.382172 -0.463041 1.033867
v 0.400000 -0.420000 1.040000
v 0.400000 -0.420000 1.040000
v 0.417828 -0.463041 1.033867
v 0.400000 -0.466587 1.033867
v 0.400000 -0.420000 1.040000
v 0.400000 -0.420000 1.040000
v 0.432942 -0.452942 1.033867
v 0.417828 -0.463041 1.033867
v 0.400000 -0.420000 1.040000
v 0.400000 -0.420000 1.040000
v 0.443041 -0.437828 1.033867
v 0.432942 -0.452942 1.033867
v 0.400000 -0.420000 1.040000
v 0.400000 -0.420000 1.040000
v 0.446587 -0.420000 1.033867
v 0.443041 -0.437828 1.033867
v 0.446587 -0.420000 1.033867
v 0.443041 -0.402172 1.033867
v 0.483149 -0.385558 1.015885
v 0.490000 -0.420000 1.015885
v 0.443041 -0.402172 1.033867
v 0.432942 -0.387058 1.033867
v 0.463640 -0.356360 1.015885
v 0.483149 -0.385558 1.015885
v 0.432942 -0.387058 1.033867
v 0.417828 -0.376959 1.033867
v 0.434442 -0.336851 1.015885
v 0.463640 -0.356360 1.015885
v 0.417828 -0.376959 1.033867
v 0.400000 -0.373413 1.033867
v 0.400000 -0.330000 1.015885
v 0.434442 -0.336851 1.015885
v 0.400000 -0.373413 1.033867
v 0.382172 -0.376959 1.033867
v 0.365558 -0.336851 1.015885
v 0.400000 -0.330000 1.015885
v 0.382172 -0.376959 1.033867
v 0.367058 -0.387058 1.033867
v 0.336360 -0.356360 1.015885
v 0.365558 -0.336851 1.015885
v 0.367058 -0.387058 1.033867
v 0.356959 -0.402172 1.033867
v 0.316851 -0.385558 1.015885
v 0.336360 -0.356360 1.015885
v 0.356959 -0.402172 1.033867
v 0.353413 -0.420000 1.033867
v 0.310000 -0.420000 1.015885
v 0.316851 -0.385558 1.015885
v 0.353413 -0.420000 1.033867
v 0.356959 -0.437828 1.033867
v 0.316851 -0.454442 1.015885
v 0.310000 -0.420000 1.015885
v 0.356959 -0.437828 1.033867
v 0.367058 -0.452942 1.033867
v 0.336360 -0.483640 1.015885
v 0.316851 -0.454442 1.015885
v 0.367058 -0.452942 1.033867
v 0.382172 -0.463041 1.033867
v 0.365558 -0.503149 1.015885
v 0.336360 -0.483640 1.015885
v 0.382172 -0.463041 1.033867
v 0.400000 -0.466587 1.033867
v 0.400000 -0.510000 1.015885
v 0.365558 -0.503149 1.015885
v 0.400000 -0.466587 1.033867
v 0.417828 -0.463041 1.033867
v 0.434442 -0.503149 1.015885
v 0.400000 -0.510000 1.015885
v 0.417828 -0.463041 1.033867
v 0.432942 -0.452942 1.033867
v 0.463640 -0.483640 1.015885
v 0.434442 -0.503149 1.015885
v 0.432942 -0.452942 1.033867
v 0.443041 -0.437828 1.033867
v 0.483149 -0.454442 1.015885
v 0.463640 -0.483640 1.015885
v 0.443041 -0.437828 1.033867
v 0.446587 -0.420000 1.033867
v 0.490000 -0.420000 1.015885
v 0.483149 -0.454442 1.015885
v 0.490000 -0.420000 1.015885
v 0.483149 -0.385558 1.015885
v 0.517591 -0.371292 0.987279
v 0.527279 -0.420000 0.987279
v 0.483149 -0.385558 1.015885
v 0.463640 -0.356360 1.015885
v 0.490000 -0.330000 0.987279
v 0.517591 -0.371292 0.987279
v 0.463640 -0.356360 1.015885
v 0.434442 -0.336851 1.015885
v 0.448708 -0.302409 0.987279
v 0.490000 -0.330000 0.987279
v 0.434442 -0.336851 1.015885
v 0.400000 -0.330000 1.015885
v 0.400000 -0.292721 0.987279
v 0.448708 -0.302409 0.987279
v 0.400000 -0.330000 1.015885
v 0.365558 -0.336851 1.015885
v 0.351292 -0.302409 0.987279
v 0.400000 -0.292721 0.987279
v 0.365558 -0.336851 1.015885
v 0.336360 -0.356360 1.015885
v 0.310000 -0.330000 0.987279
v 0.351292 -0.302409 0.987279
v 0.336360 -0.356360 1.015885
v 0.316851 -0.385558 1.015885
v 0.282409 -0.371292 0.987279
v 0.310000 -0.330000 0.987279
v 0.316851 -0.385558 1.015885
v 0.310000 -0.420000 1.015885
v 0.272721 -0.420000 0.987279
v 0.282409 -0.371292 0.987279
v 0.310000 -0.420000 1.015885
v 0.316851 -0.454442 1.015885
v 0.282409 -0.468708 0.987279
v 0.272721 -0.420000 0.987279
v 0.316851 -0.454442 1.015885
v 0.336360 -0.483640 1.015885
v 0.310000 -0.510000 0.987279
v 0.282409 -0.468708 0.987279
v 0.336360 -0.483640 1.015885
v 0.365558 -0.503149 1.015885
v 0.351292 -0.537591 0.987279
v 0.310000 -0.510000 0.987279
v 0.365558 -0.503149 1.015885
v 0.400000 -0.510000 1.015885
v 0.400000 -0.547279 0.987279
v 0.351292 -0.537591 0.987279
v 0.400000 -0.510000 1.015885
v 0.434442 -0.503149 1.015885
v 0.448708 -0.537591 0.987279
v 0.400000 -0.547279 0.987279
v 0.434442 -0.503149 1.015885
v 0.463640 -0.483640 1.015885
v 0.490000 -0.510000 0.987279
v 0.448708 -0.537591 0.987279
v 0.463640 -0.483640 1.015885
v 0.483149 -0.454442 1.015885
v 0.517591 -0.468708 0.987279
v 0.490000 -0.510000 0.987279
v 0.483149 -0.454442 1.015885
v 0.490000 -0.420000 1.015885
v 0.527279 -0.420000 0.987279
v 0.517591 -0.468708 0.987279
v 0.527279 -0.420000 0.987279
v 0.517591 -0.371292 0.987279
v 0.544019 -0.360346 0.950000
v 0.555885 -0.420000 0.950000
v 0.517591 -0.371292 0.987279
v 0.490000 -0.330000 0.987279
v 0.510227 -0.309773 0.950000
v 0.544019 -0.360346 0.950000
v 0.490000 -0.330000 0.987279
v 0.448708 -0.302409 0.987279
v 0.459654 -0.275981 0.950000
v 0.510227 -0.309773 0.950000
v 0.448708 -0.302409 0.987279
v 0.400000 -0.292721 0.987279
v 0.400000 -0.264115 0.950000
v 0.459654 -0.275981 0.950000
v 0.400000 -0.292721 0.987279
v 0.351292 -0.302409 0.987279
v 0.340346 -0.275981 0.950000
v 0.400000 -0.264115 0.950000
v 0.351292 -0.302409 0.987279
v 0.310000 -0.330000 0.987279
v 0.289773 -0.309773 0.950000
v 0.340346 -0.275981 0.950000
v 0.310000 -0.330000 0.987279
v 0.282409 -0.371292 0.987279
v 0.255981 -0.360346 0.950000
v 0.289773 -0.309773 0.950000
v 0.282409 -0.371292 0.987279
v 0.272721 -0.420000 0.987279
v 0.244115 -0.420000 0.950000
v 0.255981 -0.360346 0.950000
v 0.272721 -0.420000 0.987279
v 0.282409 -0.468708 0.987279
v 0.255981 -0.479654 0.950000
v 0.244115 -0.420000 0.950000
v 0.282409 -0.468708 0.987279
v 0.310000 -0.510000 0.987279
v 0.289773 -0.530227 0.950000
v 0.255981 -0.479654 0.950000
v 0.310000 -0.510000 0.987279
v 0.351292 -0.537591 0.987279
v 0.340346 -0.564019 0.950000
v 0.289773 -0.530227 0.950000
v 0.351292 -0.537591 0.987279
v 0.400000 -0.547279 0.987279
v 0.400000 -0.575885 0.950000
v 0.340346 -0.564019 0.950000
v 0.400000 -0.547279 0.987279
v 0.448708 -0.537591 0.987279
v 0.459654 -0.564019 0.950000
v 0.400000 -0.575885 0.950000
v 0.448708 -0.537591 0.987279
v 0.490000 -0.510000 0.987279
v 0.510227 -0.530227 0.950000
v 0.459654 -0.564019 0.950000
v 0.490000 -0.510000 0.987279
v 0.517591 -0.468708 0.987279
v 0.544019 -0.479654 0.950000
v 0.510227 -0.530227 0.950000
v 0.517591 -0.468708 0.987279
v 0.527279 -0.420000 0.987279
v 0.555885 -0.420000 0.950000
v 0.544019 -0.479654 0.950000
v 0.555885 -0.420000 0.950000
v 0.544019 -0.360346 0.950000
v 0.560632 -0.353464 0.906587
v 0.573867 -0.420000 0.906587
v 0.544019 -0.360346 0.950000
v 0.510227 -0.309773 0.950000
v 0.522942 -0.297058 0.906587
v 0.560632 -0.353464 0.906587
v 0.510227 -0.309773 0.950000
v 0.459654 -0.275981 0.950000
v 0.466536 -0.259368 0.906587
v 0.522942 -0.297058 0.906587
v 0.459654 -0.275981 0.950000
v 0.400000 -0.264115 0.950000
v 0.400000 -0.246133 0.906587
v 0.466536 -0.259368 0.906587
v 0.400000 -0.264115 0.950000
v 0.340346 -0.275981 0.950000
v 0.333464 -0.259368 0.906587
v 0.400000 -0.246133 0.906587
v 0.340346 -0.275981 0.950000
v 0.289773 -0.309773 0.950000
v 0.277058 -0.297058 0.906587
v 0.333464 -0.259368 0.906587
v 0.289773 -0.309773 0.950000
v 0.255981 -0.360346 0.950000
v 0.239368 -0.353464 0.906587
v 0.277058 -0.297058 0.906587
v 0.255981 -0.360346 0.950000
v 0.244115 -0.420000 0.950000
v 0.226133 -0.420000 0.906587
v 0.239368 -0.353464 0.906587
v 0.244115 -0.420000 0.950000
v 0.255981 -0.479654 0.950000
v 0.239368 -0.486536 0.906587
v 0.226133 -0.420000 0.906587
v 0.255981 -0.479654 0.950000
v 0.289773 -0.530227 0.950000
v 0.277058 -0.542942 0.906587
v 0.239368 -0.486536 0.906587
v 0.289773 -0.530227 0.950000
v 0.340346 -0.564019 0.950000
v 0.333464 -0.580632 0.906587
v 0.277058 -0.542942 0.906587
v 0.340346 -0.564019 0.950000
v 0.400000 -0.575885 0.950000
v 0.400000 -0.593867 0.906587
v 0.333464 -0.580632 0.906587
v 0.400000 -0.575885 0.950000
v 0.459654 -0.564019 0.950000
v 0.466536 -0.580632 0.906587
v 0.400000 -0.593867 0.906587
v 0.459654 -0.564019 0.950000
v 0.510227 -0.530227 0.950000
v 0.522942 -0.542942 0.906587
v 0.466536 -0.580632 0.906587
v 0.510227 -0.530227 0.950000
v 0.544019 -0.479654 0.950000
v 0.560632 -0.486536 0.906587
v 0.522942 -0.542942 0.906587
v 0.544019 -0.479654 0.950000
v 0.555885 -0.420000 0.950000
v 0.573867 -0.420000 0.906587
v 0.560632 -0.486536 0.906587
v 0.573867 -0.420000 0.906587
v 0.560632 -0.353464 0.906587
v 0.566298 -0.351117 0.860000
v 0.580000 -0.420000 0.860000
v 0.560632 -0.353464 0.906587
v 0.522942 -0.297058 0.906587
v 0.527279 -0.292721 0.860000
v 0.566298 -0.351117 0.860000
v 0.522942 -0.297058 0.906587
v 0.466536 -0.259368 0.906587
v 0.468883 -0.253702 0.860000
v 0.527279 -0.292721 0.860000
v 0.466536 -0.259368 0.906587
v 0.400000 -0.246133 0.906587
v 0.400000 -0.240000 0.860000
v 0.468883 -0.253702 0.860000
v 0.400000 -0.246133 0.906587
v 0.333464 -0.259368 0.906587
v 0.331117 -0.253702 0.860000
v 0.400000 -0.240000 0.860000
v 0.333464 -0.259368 0.906587
v 0.277058 -0.297058 0.906587
v 0.272721 -0.292721 0.860000
v 0.331117 -0.253702 0.860000
v 0.277058 -0.297058 0.906587
v 0.239368 -0.353464 0.906587
v 0.233702 -0.351117 0.860000
v 0.272721 -0.292721 0.860000
v 0.239368 -0.353464 0.906587
v 0.226133 -0.420000 0.906587
v 0.220000 -0.420000 0.860000
v 0.233702 -0.351117 0.860000
v 0.226133 -0.420000 0.906587
v 0.239368 -0.486536 0.906587
v 0.233702 -0.488883 0.860000
v 0.220000 -0.420000 0.860000
v 0.239368 -0.486536 0.906587
v 0.277058 -0.542942 0.906587
v 0.272721 -0.547279 0.860000
v 0.233702 -0.488883 0.860000
v 0.277058 -0.542942 0.906587
v 0.333464 -0.580632 0.906587
v 0.331117 -0.586298 0.860000
v 0.272721 -0.547279 0.860000
v 0.333464 -0.580632 0.906587
v 0.400000 -0.593867 0.906587
v 0.400000 -0.600000 0.860000
v 0.331117 -0.586298 0.860000
v 0.400000 -0.593867 0.906587
v 0.466536 -0.580632 0.906587
v 0.468883 -0.586298 0.860000
v 0.400000 -0.600000 0.860000
v 0.466536 -0.580632 0.906587
v 0.522942 -0.542942 0.906587
v 0.527279 -0.547279 0.860000
v 0.468883 -0.586298 0.860000
v 0.522942 -0.542942 0.906587
v 0.560632 -0.486536 0.906587
v 0.566298 -0.488883 0.860000
v 0.527279 -0.547279 0.860000
v 0.560632 -0.486536 0.906587
v 0.573867 -0.420000 0.906587
v 0.580000 -0.420000 0.860000
v 0.566298 -0.488883 0.860000
v 0.580000 -0.420000 0.860000
v 0.566298 -0.351117 0.860000
v 0.560632 -0.353464 0.813413
v 0.573867 -0.420000 0.813413
v 0.566298 -0.351117 0.860000
v 0.527279 -0.292721 0.860000
v 0.522942 -0.297058 0.813413
v 0.560632 -0.353464 0.813413
v 0.527279 -0.292721 0.860000
v 0.468883 -0.253702 0.860000
v 0.466536 -0.259368 0.813413
v 0.522942 -0.297058 0.813413
v 0.468883 -0.253702 0.860000
v 0.400000 -0.240000 0.860000
v 0.400000 -0.246133 0.813413
v 0.466536 -0.259368 0.813413
v 0.400000 -0.240000 0.860000
v 0.331117 -0.253702 0.860000
v 0.333464 -0.259368 0.813413
v 0.400000 -0.246133 0.813413
v 0.331117 -0.253702 0.860000
v 0.272721 -0.292721 0.860000
v 0.277058 -0.297058 0.813413
v 0.333464 -0.259368 0.813413
v 0.272721 -0.292721 0.860000
v 0.233702 -0.351117 0.860000
v 0.239368 -0.353464 0.813413
v 0.277058 -0.297058 0.813413
v 0.233702 -0.351117 0.860000
v 0.220000 -0.420000 0.860000
v 0.226133 -0.420000 0.813413
v 0.239368 -0.353464 0.813413
v 0.220000 -0.420000 0.860000
v 0.233702 -0.488883 0.860000
v 0.239368 -0.486536 0.813413
v 0.226133 -0.420000 0.813413
v 0.233702 -0.488883 0.860000
v 0.272721 -0.547279 0.860000
v 0.277058 -0.542942 0.813413
v 0.239368 -0.486536 0.813413
v 0.272721 -0.547279 0.860000
v 0.331117 -0.586298 0.860000
v 0.333464 -0.580632 0.813413
v 0.277058 -0.542942 0.813413
v 0.331117 -0.586298 0.860000
v 0.400000 -0.600000 0.860000
v 0.400000 -0.593867 0.813413
v 0.333464 -0.580632 0.813413
v 0.400000 -0.600000 0.860000
v 0.468883 -0.586298 0.860000
v 0.466536 -0.580632 0.813413
v 0.400000 -0.593867 0.813413
v 0.468883 -0.586298 0.860000
v 0.527279 -0.547279 0.860000
v 0.522942 -0.542942 0.813413
v 0.466536 -0.580632 0.813413
v 0.527279 -0.547279 0.860000
v 0.566298 -0.488883 0.860000
v 0.560632 -0.486536 0.813413
v 0.522942 -0.542942 0.813413
v 0.566298 -0.488883 0.860000
v 0.580000 -0.420000 0.860000
v 0.573867 -0.420000 0.813413
v 0.560632 -0.486536 0.813413
v 0.573867 -0.420000 0.813413
v 0.560632 -0.353464 0.813413
v 0.544019 -0.360346 0.770000
v 0.555885 -0.420000 0.770000
v 0.560632 -0.353464 0.813413
v 0.522942 -0.297058 0.813413
v 0.510227 -0.309773 0.770000
v 0.544019 -0.360346 0.770000
v 0.522942 -0.297058 0.813413
v 0.466536 -0.259368 0.813413
v 0.459654 -0.275981 0.770000
v 0.510227 -0.309773 0.770000
v 0.466536 -0.259368 0.813413
v 0.400000 -0.246133 0.813413
v 0.400000 -0.264115 0.770000
v 0.459654 -0.275981 0.770000
v 0.400000 -0.246133 0.813413
v 0.333464 -0.259368 0.813413
v 0.340346 -0.275981 0.770000
v 0.400000 -0.264115 0.770000
v 0.333464 -0.259368 0.813413
v 0.277058 -0.297058 0.813413
v 0.289773 -0.309773 0.770000
v 0.340346 -0.275981 0.770000
v 0.277058 -0.297058 0.813413
v 0.239368 -0.353464 0.813413
v 0.255981 -0.360346 0.770000
v 0.289773 -0.309773 0.770000
v 0.239368 -0.353464 0.813413
v 0.226133 -0.420000 0.813413
v 0.244115 -0.420000 0.770000
v 0.255981 -0.360346 0.770000
v 0.226133 -0.420000 0.813413
v 0.239368 -0.486536 0.813413
v 0.255981 -0.479654 0.770000
v 0.244115 -0.420000 0.770000
v 0.239368 -0.486536 0.813413
v 0.277058 -0.542942 0.813413
v 0.289773 -0.530227 0.770000
v 0.255981 -0.479654 0.770000
v 0.277058 -0.542942 0.813413
v 0.333464 -0.580632 0.813413
v 0.340346 -0.564019 0.770000
v 0.289773 -0.530227 0.770000
v 0.333464 -0.580632 0.813413
v 0.400000 -0.593867 0.813413
v 0.400000 -0.575885 0.770000
v 0.340346 -0.564019 0.770000
v 0.400000 -0.593867 0.813413
v 0.466536 -0.580632 0.813413
v 0.459654 -0.564019 0.770000
v 0.400000 -0.575885 0.770000
v 0.466536 -0.580632 0.813413
v 0.522942 -0.542942 0.813413
v 0.510227 -0.530227 0.770000
v 0.459654 -0.564019 0.770000
v 0.522942 -0.542942 0.813413
v 0.560632 -0.486536 0.813413
v 0.544019 -0.479654 0.770000
v 0.510227 -0.530227 0.770000
v 0.560632 -0.486536 0.813413
v 0.573867 -0.420000 0.813413
v 0.555885 -0.420000 0.770000
v 0.544019 -0.479654 0.770000
v 0.555885 -0.420000 0.770000
v 0.544019 -0.360346 0.770000
v 0.517591 -0.371292 0.732721
v 0.527279 -0.420000 0.732721
v 0.544019 -0.360346 0.770000
v 0.510227 -0.309773 0.770000
v 0.490000 -0.330000 0.732721
v 0.517591 -0.371292 0.732721
v 0.510227 -0.309773 0.770000
v 0.459654 -0.275981 0.770000
v 0.448708 -0.302409 0.732721
v 0.490000 -0.330000 0.732721
v 0.459654 -0.275981 0.770000
v 0.400000 -0.264115 0.770000
v 0.400000 -0.292721 0.732721
v 0.448708 -0.302409 0.732721
v 0.400000 -0.264115 0.770000
v 0.340346 -0.275981 0.770000
v 0.351292 -0.302409 0.732721
v 0.400000 -0.292721 0.732721
v 0.340346 -0.275981 0.770000
v 0.289773 -0.309773 0.770000
v 0.310000 -0.330000 0.732721
v 0.351292 -0.302409 0.732721
v 0.289773 -0.309773 0.770000
v 0.255981 -0.360346 0.770000
v 0.282409 -0.371292 0.732721
v 0.310000 -0.330000 0.732721
v 0.255981 -0.360346 0.770000
v 0.244115 -0.420000 0.770000
v 0.272721 -0.420000 0.732721
v 0.282409 -0.371292 0.732721
v 0.244115 -0.420000 0.770000
v 0.255981 -0.479654 0.770000
v 0.282409 -0.468708 0.732721
v 0.272721 -0.420000 0.732721
v 0.255981 -0.479654 0.770000
v 0.289773 -0.530227 0.770000
v 0.310000 -0.510000 0.732721
v 0.282409 -0.468708 0.732721
v 0.289773 -0.530227 0.770000
v 0.340346 -0.564019 0.770000
v 0.351292 -0.537591 0.732721
v 0.310000 -0.510000 0.732721
v 0.340346 -0.564019 0.770000
v 0.400000 -0.575885 0.770000
v 0.400000 -0.547279 0.732721
v 0.351292 -0.537591 0.732721
v 0.400000 -0.575885 0.770000
v 0.459654 -0.564019 0.770000
v 0.448708 -0.537591 0.732721
v 0.400000 -0.547279 0.732721
v 0.459654 -0.564019 0.770000
v 0.510227 -0.530227 0.770000
v 0.490000 -0.510000 0.732721
v 0.448708 -0.537591 0.732721
v 0.510227 -0.530227 0.770000
v 0.544019 -0.479654 0.770000
v 0.517591 -0.468708 0.732721
v 0.490000 -0.510000 0.732721
v 0.544019 -0.479654 0.770000
v 0.555885 -0.420000 0.770000
v 0.527279 -0.420000 0.732721
v 0.517591 -0.468708 0.732721
v 0.527279 -0.420000 0.732721
v 0.517591 -0.371292 0.732721
v 0.483149 -0.385558 0.704115
v 0.490000 -0.420000 0.704115
v 0.517591 -0.371292 0.732721
v 0.490000 -0.330000 0.732721
v 0.463640 -0.356360 0.704115
v 0.483149 -0.385558 0.704115
v 0.490000 -0.330000 0.732721
v 0.448708 -0.302409 0.732721
v 0.434442 -0.336851 0.704115
v 0.463640 -0.356360 0.704115
v 0.448708 -0.302409 0.732721
v 0.400000 -0.292721 0.732721
v 0.400000 -0.330000 0.704115
v 0.434442 -0.336851 0.704115
v 0.400000 -0.292721 0.732721
v 0.351292 -0.302409 0.732721
v 0.365558 -0.336851 0.704115
v 0.400000 -0.330000 0.704115
v 0.351292 -0.302409 0.732721
v 0.310000 -0.330000 0.732721
v 0.336360 -0.356360 0.704115
v 0.365558 -0.336851 0.704115
v 0.310000 -0.330000 0.732721
v 0.282409 -0.371292 0.732721
v 0.316851 -0.385558 0.704115
v 0.336360 -0.356360 0.704115
v 0.282409 -0.371292 0.732721
v 0.272721 -0.420000 0.732721
v 0.310000 -0.420000 0.704115
v 0.316851 -0.385558 0.704115
v 0.272721 -0.420000 0.732721
v 0.282409 -0.468708 0.732721
v 0.316851 -0.454442 0.704115
v 0.310000 -0.420000 0.704115
v 0.282409 -0.468708 0.732721
v 0.310000 -0.510000 0.732721
v 0.336360 -0.483640 0.704115
v 0.316851 -0.454442 0.704115
v 0.310000 -0.510000 0.732721
v 0.351292 -0.537591 0.732721
v 0.365558 -0.503149 0.704115
v 0.336360 -0.483640 0.704115
v 0.351292 -0.537591 0.732721
v 0.400000 -0.547279 0.732721
v 0.400000 -0.510000 0.704115
v 0.365558 -0.503149 0.704115
v 0.400000 -0.547279 0.732721
v 0.448708 -0.537591 0.732721
v 0.434442 -0.503149 0.704115
v 0.400000 -0.510000 0.704115
v 0.448708 -0.537591 0.732721
v 0.490000 -0.510000 0.732721
v 0.463640 -0.483640 0.704115
v 0.434442 -0.503149 0.704115
v 0.490000 -0.510000 0.732721
v 0.517591 -0.468708 0.732721
v 0.483149 -0.454442 0.704115
v 0.463640 -0.483640 0.704115
v 0.517591 -0.468708 0.732721
v 0.527279 -0.420000 0.732721
v 0.490000 -0.420000 0.704115
v 0.483149 -0.454442 0.704115
v 0.490000 -0.420000 0.704115
v 0.483149 -0.385558 0.704115
v 0.443041 -0.402172 0.686133
v 0.446587 -0.420000 0.686133
v 0.483149 -0.385558 0.704115
v 0.463640 -0.356360 0.704115
v 0.432942 -0.387058 0.686133
v 0.443041 -0.402172 0.686133
v 0.463640 -0.356360 0.704115
v 0.434442 -0.336851 0.704115
v 0.417828 -0.376959 0.686133
v 0.432942 -0.387058 0.686133
v 0.434442 -0.336851 0.704115
v 0.400000 -0.330000 0.704115
v 0.400000 -0.373413 0.686133
v 0.417828 -0.376959 0.686133
v 0.400000 -0.330000 0.704115
v 0.365558 -0.336851 0.704115
v 0.382172 -0.376959 0.686133
v 0.400000 -0.373413 0.686133
v 0.365558 -0.336851 0.704115
v 0.336360 -0.356360 0.704115
v 0.367058 -0.387058 0.686133
v 0.382172 -0.376959 0.686133
v 0.336360 -0.356360 0.704115
v 0.316851 -0.385558 0.704115
v 0.356959 -0.402172 0.686133
v 0.367058 -0.387058 0.686133
v 0.316851 -0.385558 0.704115
v 0.310000 -0.420000 0.704115
v 0.353413 -0.420000 0.686133
v 0.356959 -0.402172 0.686133
v 0.310000 -0.420000 0.704115
v 0.316851 -0.454442 0.704115
v 0.356959 -0.437828 0.686133
v 0.353413 -0.420000 0.686133
v 0.316851 -0.454442 0.704115
v 0.336360 -0.483640 0.704115
v 0.367058 -0.452942 0.686133
v 0.356959 -0.437828 0.686133
v 0.336360 -0.483640 0.704115
v 0.365558 -0.503149 0.704115
v 0.382172 -0.463041 0.686133
v 0.367058 -0.452942 0.686133
v 0.365558 -0.503149 0.704115
v 0.400000 -0.510000 0.704115
v 0.400000 -0.466587 0.686133
v 0.382172 -0.463041 0.686133
v 0.400000 -0.510000 0.704115
v 0.434442 -0.503149 0.704115
v 0.417828 -0.463041 0.686133
v 0.400000 -0.466587 0.686133
v 0.434442 -0.503149 0.704115
v 0.463640 -0.483640 0.704115
v 0.432942 -0.452942 0.686133
v 0.417828 -0.463041 0.686133
v 0.463640 -0.483640 0.704115
v 0.483149 -0.454442 0.704115
v 0.443041 -0.437828 0.686133
v 0.432942 -0.452942 0.686133
v 0.483149 -0.454442 0.704115
v 0.490000 -0.420000 0.704115
v 0.446587 -0.420000 0.686133
v 0.443041 -0.437828 0.686133
v 0.446587 -0.420000 0.686133
v 0.443041 -0.402172 0.686133
v 0.400000 -0.420000 0.680000
v 0.400000 -0.420000 0.680000
v 0.443041 -0.402172 0.686133
v 0.432942 -0.387058 0.686133
v 0.400000 -0.420000 0.680000
v 0.400000 -0.420000 0.680000
v 0.432942 -0.387058 0.686133
v 0.417828 -0.376959 0.686133
v 0.400000 -0.420000 0.680000
v 0.400000 -0.420000 0.680000
v 0.417828 -0.376959 0.686133
v 0.400000 -0.373413 0.686133
v 0.400000 -0.420000 0.680000
v 0.400000 -0.420000 0.680000
v 0.400000 -0.373413 0.686133
v 0.382172 -0.376959 0.686133
v 0.400000 -0.420000 0.680000
v 0.400000 -0.420000 0.680000
v 0.382172 -0.376959 0.686133
v 0.367058 -0.387058 0.686133
v 0.400000 -0.420000 0.680000
v 0.400000 -0.420000 0.680000
v 0.367058 -0.387058 0.686133
v 0.356959 -0.402172 0.686133
v 0.400000 -0.420000 0.680000
v 0.400000 -0.420000 0.680000
v 0.356959 -0.402172 0.686133
v 0.353413 -0.420000 0.686133
v 0.400000 -0.420000 0.680000
v 0.400000 -0.420000 0.680000
v 0.353413 -0.420000 0.686133
v 0.356959 -0.437828 0.686133
v 0.400000 -0.420000 0.680000
v 0.400000 -0.420000 0.680000
v 0.356959 -0.437828 0.686133
v 0.367058 -0.452942 0.686133
v 0.400000 -0.420000 0.680000
v 0.400000 -0.420000 0.680000
v 0.367058 -0.452942 0.686133
v 0.382172 -0.463041 0.686133
v 0.400000 -0.420000 0.680000
v 0.400000 -0.420000 0.680000
v 0.382172 -0.463041 0.686133
v 0.400000 -0.466587 0.686133
v 0.400000 -0.420000 0.680000
v 0.400000 -0.420000 0.680000
v 0.400000 -0.466587 0.686133
v 0.417828 -0.463041 0.686133
v 0.400000 -0.420000 0.680000
v 0.400000 -0.420000 0.680000
v 0.417828 -0.463041 0.686133
v 0.432942 -0.452942 0.686133
v 0.400000 -0.420000 0.680000
v 0.400000 -0.420000 0.680000
v 0.432942 -0.452942 0.686133
v 0.443041 -0.437828 0.686133
v 0.400000 -0.420000 0.680000
v 0.400000 -0.420000 0.680000
v 0.443041 -0.437828 0.686133
v 0.446587 -0.420000 0.686133
v 0.400000 -0.420000 0.680000
v 0.400000 -0.420000 0.680000
usemtl wood
f 1 2 3
f 1 3 4
f 5 6 7
f 5 7 8
f 9 10 11
f 9 11 12
f 13 14 15
f 13 15 16
f 17 18 19
f 17 19 20
f 21 22 23
f 21 23 24
usemtl cream
f 25 26 27
f 25 27 28
f 29 30 31
f 32 33 34
f 35 36 37
f 35 37 38
f 39 40 41
f 42 43 44
f 45 46 47
f 45 47 48
f 49 50 51
f 52 53 54
f 55 56 57
f 55 57 58
f 59 60 61
f 62 63 64
f 65 66 67
f 65 67 68
f 69 70 71
f 72 73 74
f 75 76 77
f 75 77 78
f 79 80 81
f 82 83 84
f 85 86 87
f 85 87 88
f 89 90 91
f 92 93 94
f 95 96 97
f 95 97 98
f 99 100 101
f 102 103 104
f 105 106 107
f 105 107 108
f 109 110 111
f 112 113 114
f 115 116 117
f 115 117 118
f 119 120 121
f 122 123 124
f 125 126 127
f 125 127 128
f 129 130 131
f 132 133 134
f 135 136 137
f 135 137 138
f 139 140 141
f 142 143 144
f 145 146 147
f 145 147 148
f 149 150 151
f 152 153 154
f 155 156 157
f 155 157 158
f 159 160 161
f 162 163 164
f 165 166 167
f 165 167 168
f 169 170 171
f 172 173 174
f 175 176 177
f 175 177 178
f 179 180 181
f 182 183 184
f 185 186 187
f 185 187 188
f 189 190 191
f 192 193 194
f 195 196 197
f 195 197 198
f 199 200 201
f 202 203 204
f 205 206 207
f 205 207 208
f 209 210 211
f 212 213 214
f 215 216 217
f 215 217 218
f 219 220 221
f 222 223 224
f 225 226 227
f 225 227 228
f 229 230 231
f 232 233 234
f 235 236 237
f 235 237 238
f 239 240 241
f 242 243 244
f 245 246 247
f 245 247 248
f 249 250 251
f 252 253 254
f 255 256 257
f 255 257 258
f 259 260 261
f 262 263 264
f 265 266 267
f 265 267 268
f 269 270 271
f 272 273 274
f 275 276 277
f 275 277 278
f 279 280 281
f 282 283 284
f 285 286 287
f 285 287 288
f 289 290 291
f 292 293 294
f 295 296 297
f 295 297 298
f 299 300 301
f 302 303 304
f 305 306 307
f 305 307 308
f 309 310 311
f 312 313 314
f 315 316 317
f 315 317 318
f 319 320 321
f 322 323 324
f 325 326 327
f 325 327 328
f 329 330 331
f 332 333 334
f 335 336 337
f 335 337 338
f 339 340 341
f 342 343 344
f 345 346 347
f 345 347 348
f 349 350 351
f 352 353 354
f 355 356 357
f 355 357 358
f 359 360 361
f 362 363 364
f 365 366 367
f 365 367 368
f 369 370 371
f 372 373 374
f 375 376 377
f 375 377 378
f 379 380 381
f 382 383 384
f 385 386 387
f 385 387 388
f 389 390 391
f 392 393 394
f 395 396 397
f 395 397 398
f 399 400 401
f 402 403 404
f 405 406 407
f 405 407 408
f 409 410 411
f 412 413 414
f 415 416 417
f 415 417 418
f 419 420 421
f 422 423 424
f 425 426 427
f 425 427 428
f 429 430 431
f 432 433 434
f 435 436 437
f 435 437 438
f 439 440 441
f 442 443 444
f 445 446 447
f 445 447 448
f 449 450 451
f 452 453 454
f 455 456 457
f 455 457 458
f 459 460 461
f 462 463 464
f 465 466 467
f 465 467 468
f 469 470 471
f 472 473 474
f 475 476 477
f 475 477 478
f 479 480 481
f 482 483 484
f 485 486 487
f 485 487 488
f 489 490 491
f 492 493 494
f 495 496 497
f 495 497 498
f 499 500 501
f 502 503 504
usemtl foliage
f 505 506 507
f 505 507 508
f 509 510 511
f 509 511 512
f 513 514 515
f 513 515 516
f 517 518 519
f 517 519 520
f 521 522 523
f 521 523 524
f 525 526 527
f 525 527 528
f 529 530 531
f 529 531 532
f 533 534 535
f 533 535 536
f 537 538 539
f 537 539 540
f 541 542 543
f 541 543 544
f 545 546 547
f 545 547 548
f 549 550 551
f 549 551 552
f 553 554 555
f 553 555 556
f 557 558 559
f 557 559 560
f 561 562 563
f 561 563 564
f 565 566 567
f 565 567 568
f 569 570 571
f 569 571 572
f 573 574 575
f 573 575 576
f 577 578 579
f 577 579 580
f 581 582 583
f 581 583 584
f 585 586 587
f 585 587 588
f 589 590 591
f 589 591 592
f 593 594 595
f 593 595 596
f 597 598 599
f 597 599 600
f 601 602 603
f 601 603 604
f 605 606 607
f 605 607 608
f 609 610 611
f 609 611 612
f 613 614 615
f 613 615 616
f 617 618 619
f 617 619 620
f 621 622 623
f 621 623 624
f 625 626 627
f 625 627 628
f 629 630 631
f 629 631 632
f 633 634 635
f 633 635 636
f 637 638 639
f 637 639 640
f 641 642 643
f 641 643 644
f 645 646 647
f 645 647 648
f 649 650 651
f 649 651 652
f 653 654 655
f 653 655 656
f 657 658 659
f 657 659 660
f 661 662 663
f 661 663 664
f 665 666 667
f 665 667 668
f 669 670 671
f 669 671 672
f 673 674 675
f 673 675 676
f 677 678 679
f 677 679 680
f 681 682 683
f 681 683 684
f 685 686 687
f 685 687 688
f 689 690 691
f 689 691 692
f 693 694 695
f 693 695 696
f 697 698 699
f 697 699 700
f 701 702 703
f 701 703 704
f 705 706 707
f 705 707 708
f 709 710 711
f 709 711 712
f 713 714 715
f 713 715 716
f 717 718 719
f 717 719 720
f 721 722 723
f 721 723 724
f 725 726 727
f 725 727 728
f 729 730 731
f 729 731 732
f 733 734 735
f 733 735 736
f 737 738 739
f 737 739 740
f 741 742 743
f 741 743 744
f 745 746 747
f 745 747 748
f 749 750 751
f 749 751 752
f 753 754 755
f 753 755 756
f 757 758 759
f 757 759 760
f 761 762 763
f 761 763 764
f 765 766 767
f 765 767 768
f 769 770 771
f 769 771 772
f 773 774 775
f 773 775 776
f 777 778 779
f 777 779 780
f 781 782 783
f 781 783 784
f 785 786 787
f 785 787 788
f 789 790 791
f 789 791 792
f 793 794 795
f 793 795 796
f 797 798 799
f 797 799 800
f 801 802 803
f 801 803 804
f 805 806 807
f 805 807 808
f 809 810 811
f 809 811 812
f 813 814 815
f 813 815 816
f 817 818 819
f 817 819 820
f 821 822 823
f 821 823 824
f 825 826 827
f 825 827 828
f 829 830 831
f 829 831 832
f 833 834 835
f 833 835 836
f 837 838 839
f 837 839 840
f 841 842 843
f 841 843 844
f 845 846 847
f 845 847 848
f 849 850 851
f 849 851 852
f 853 854 855
f 853 855 856
f 857 858 859
f 857 859 860
f 861 862 863
f 861 863 864
f 865 866 867
f 865 867 868
f 869 870 871
f 869 871 872
f 873 874 875
f 873 875 876
f 877 878 879
f 877 879 880
f 881 882 883
f 881 883 884
f 885 886 887
f 885 887 888
f 889 890 891
f 889 891 892
f 893 894 895
f 893 895 896
f 897 898 899
f 897 899 900
f 901 902 903
f 901 903 904
f 905 906 907
f 905 907 908
f 909 910 911
f 909 911 912
f 913 914 915
f 913 915 916
f 917 918 919
f 917 919 920
f 921 922 923
f 921 923 924
f 925 926 927
f 925 927 928
f 929 930 931
f 929 931 932
f 933 934 935
f 933 935 936
f 937 938 939
f 937 939 940
f 941 942 943
f 941 943 944
f 945 946 947
f 945 947 948
f 949 950 951
f 949 951 952
f 953 954 955
f 953 955 956
f 957 958 959
f 957 959 960
f 961 962 963
f 961 963 964
f 965 966 967
f 965 967 968
f 969 970 971
f 969 971 972
f 973 974 975
f 973 975 976
f 977 978 979
f 977 979 980
f 981 982 983
f 981 983 984
f 985 986 987
f 985 987 988
f 989 990 991
f 989 991 992
f 993 994 995
f 993 995 996
f 997 998 999
f 997 999 1000
f 1001 1002 1003
f 1001 1003 1004
f 1005 1006 1007
f 1005 1007 1008
f 1009 1010 1011
f 1009 1011 1012
f 1013 1014 1015
f 1013 1015 1016
f 1017 1018 1019
f 1017 1019 1020
f 1021 1022 1023
f 1021 1023 1024
f 1025 1026 1027
f 1025 1027 1028
f 1029 1030 1031
f 1029 1031 1032
f 1033 1034 1035
f 1033 1035 1036
f 1037 1038 1039
f 1037 1039 1040
f 1041 1042 1043
f 1041 1043 1044
f 1045 1046 1047
f 1045 1047 1048
f 1049 1050 1051
f 1049 1051 1052
f 1053 1054 1055
f 1053 1055 1056
f 1057 1058 1059
f 1057 1059 1060
f 1061 1062 1063
f 1061 1063 1064
f 1065 1066 1067
f 1065 1067 1068
f 1069 1070 1071
f 1069 1071 1072
f 1073 1074 1075
f 1073 1075 1076
f 1077 1078 1079
f 1077 1079 1080
f 1081 1082 1083
f 1081 1083 1084
f 1085 1086 1087
f 1085 1087 1088
f 1089 1090 1091
f 1089 1091 1092
f 1093 1094 1095
f 1093 1095 1096
f 1097 1098 1099
f 1097 1099 1100
f 1101 1102 1103
f 1101 1103 1104
f 1105 1106 1107
f 1105 1107 1108
f 1109 1110 1111
f 1109 1111 1112
f 1113 1114 1115
f 1113 1115 1116
f 1117 1118 1119
f 1117 1119 1120
f 1121 1122 1123
f 1121 1123 1124
f 1125 1126 1127
f 1125 1127 1128
f 1129 1130 1131
f 1129 1131 1132
f 1133 1134 1135
f 1133 1135 1136
f 1137 1138 1139
f 1137 1139 1140
f 1141 1142 1143
f 1141 1143 1144
f 1145 1146 1147
f 1145 1147 1148
f 1149 1150 1151
f 1149 1151 1152
f 1153 1154 1155
f 1153 1155 1156
f 1157 1158 1159
f 1157 1159 1160
f 1161 1162 1163
f 1161 1163 1164
f 1165 1166 1167
f 1165 1167 1168
f 1169 1170 1171
f 1169 1171 1172
f 1173 1174 1175
f 1173 1175 1176
f 1177 1178 1179
f 1177 1179 1180
f 1181 1182 1183
f 1181 1183 1184
f 1185 1186 1187
f 1185 1187 1188
f 1189 1190 1191
f 1189 1191 1192
f 1193 1194 1195
f 1193 1195 1196
f 1197 1198 1199
f 1197 1199 1200
f 1201 1202 1203
f 1201 1203 1204
f 1205 1206 1207
f 1205 1207 1208
f 1209 1210 1211
f 1209 1211 1212
f 1213 1214 1215
f 1213 1215 1216
f 1217 1218 1219
f 1217 1219 1220
f 1221 1222 1223
f 1221 1223 1224
f 1225 1226 1227
f 1225 1227 1228
f 1229 1230 1231
f 1229 1231 1232
f 1233 1234 1235
f 1233 1235 1236
f 1237 1238 1239
f 1237 1239 1240
f 1241 1242 1243
f 1241 1243 1244
f 1245 1246 1247
f 1245 1247 1248
f 1249 1250 1251
f 1249 1251 1252
f 1253 1254 1255
f 1253 1255 1256
f 1257 1258 1259
f 1257 1259 1260
f 1261 1262 1263
f 1261 1263 1264
f 1265 1266 1267
f 1265 1267 1268
f 1269 1270 1271
f 1269 1271 1272
